<?xml version="1.0" encoding="utf-8"?>
<!-- Generator: Adobe Illustrator 21.0.2, SVG Export Plug-In . SVG Version: 6.00 Build 0)  -->
<svg version="1.1" id="Layer_1" xmlns="http://www.w3.org/2000/svg" xmlns:xlink="http://www.w3.org/1999/xlink" x="0px" y="0px"
	 viewBox="0 0 911 768" style="enable-background:new 0 0 911 768;" xml:space="preserve">
<style type="text/css">
	.st0{fill:#B1261D;}
	.st1{fill:#D73D30;}
	.st2{fill:#FFFFFF;}
	.st3{fill:url(#SVGID_1_);}
</style>
<g>
	<path d="M195.8,256.1"/>
	<path class="st0" d="M377.4,175.5l79.8,244.3l73.3-244.3h20.4L618.4,511h-43.2L535.3,296l-73.3,219.8h-10.6L376.6,296V175.5H377.4z
		"/>
	<path class="st1" d="M195.8,443.4h39.9c3.3,20.4,15.5,30.1,36.6,30.1c20.4,0,35-4.1,43.2-13c8.1-9,12.2-33.4,12.2-73.3V175.5h45.6
		v210.1c0,45.6-7.3,79-22,99.3c-14.7,20.4-40.7,30.9-79,30.9c-22,0-39.9-6.5-53.7-19.5C204.8,482.5,196.6,465.4,195.8,443.4z"/>
	<path class="st2" d="M455.5,281.4"/>
	<g id="Layer_3">
		<g>
			
				<linearGradient id="SVGID_1_" gradientUnits="userSpaceOnUse" x1="161.3726" y1="107.2455" x2="726.636" y2="672.5097" gradientTransform="matrix(1 0 0 -1 0 770)">
				<stop  offset="8.667868e-02" style="stop-color:#FFFFFF;stop-opacity:0"/>
				<stop  offset="1" style="stop-color:#FFFFFF"/>
			</linearGradient>
			<path class="st3" d="M822.7,286.2c-0.8-15.5-3.3-30.9-7.3-45.6C789.4,134,694.1,50.9,586.6,27.3S363.5,34.7,274.8,99
				C346.4,67.2,427,54.2,503.6,70.5S651.8,133.2,690,201.6c30.1,52.9,39.9,117.2,31.8,178.3s-34.2,118.1-70.8,167.7
				c-49.7,67.6-122.1,123.8-205.2,130.3c-74.9,6.5-149.8-28.5-202.7-82.2S158.4,470.2,139.6,397c0.8,73.3,29.3,145.7,78.2,201.1
				c48.9,54.6,118.1,91.2,190.5,101c-105.8,5.7-213.3-48.9-271.9-137.6c-0.8,10.6-2.4,21.2-4.1,31.8c-4.1-39.1-7.3-77.3-11.4-116.4
				c-5.7,5.7-10.6,11.4-15.5,17.1c-0.8-144.1,68.4-287.4,180.8-377c-74.9,45.6-134.3,118.9-164.5,202.7s-30.1,177.5-0.8,262.2
				c-21.2-48.9-31.8-102.6-31.8-156.3c0,2.4-0.8,4.1-1.6,6.5c-1.6,70,13,138.4,51.3,200.3c44.8,73.3,132.7,109.9,216.6,110.7
				c11.4,0,22,0,33.4-1.6c85.5-9,165.3-49.7,234.5-101C686,594,743,537,780.4,468.6C810.5,412.4,826.8,348.9,822.7,286.2z
				 M782,334.3c-2.4,30.9-9,61.9-19.5,90.4C721,546,624.1,647.7,504.4,693.3c-61.1,23.6-123.8,30.9-188.1,18.7
				c-31.8-6.5-62.7-17.1-91.2-32.6c-13.8-7.3-27.7-16.3-40.7-26.9c-14.7-11.4-20.4-25.2-29.3-41.5C215.4,686.8,317.9,721,414,708.8
				c95.3-12.2,182.4-66.8,245.9-139.2c66.8-75.7,109.9-178.3,92-277.6c-10.6-61.9-44.8-118.1-90.4-162S560.6,55,501.1,32.2
				c0-2.4,0.8-5.7,0.8-8.1c30.9,8.1,61.1,16.3,91.2,23.6c-5.7,2.4-12.2,4.9-17.9,7.3C655,58.3,727.5,116.1,760,189.3
				C779.6,234.9,786.1,284.6,782,334.3z"/>
		</g>
	</g>
</g>
</svg>
